# xmcd
#
# Track frame offsets: 
#        150
#        12339
#        26946
#        39006
#        55879
#        67757
#
# Disc length: 1053 seconds
#
# Revision: 0
# Processed by: cddbd v1.5.2PL0 Copyright (c) Steve Scherf et al.
# Submitted via: ExactAudioCopyFreeDBPlugin 1.0
#
DISCID=41041b06
DTITLE=Snakehandlers - Country Rock Is Neither
DYEAR=2007
DGENRE=Country
TTITLE0=People Who Died
TTITLE1=Music Made A Man Outta Me
TTITLE2=Cowboy Jesus
TTITLE3=Sin City
TTITLE4=Jackson County Methamphetamine Blues
TTITLE5=Music Redux
EXTD=
EXTT0=
EXTT1=
EXTT2=
EXTT3=
EXTT4=
EXTT5=
PLAYORDER=
